# xmcd
#
# Track frame offsets:
#	183
#	23258
#	47908
#	63158
#	80458
#	106203
#	126833
#	152420
#	190900
#	214333
#	240283
#
# Disc length: 3559 seconds
#
# Revision: 0
# Processed by: cddbd v1.5.1PL0 Copyright (c) Steve Scherf et al.
# Submitted via: dBpowerAMP V4.0
#
DISCID=810de50b
DTITLE=John Lee Hooker - I Feel Good The Paris Blues Sessions
DYEAR=1900
DGENRE=
TTITLE0=Baby Baby
TTITLE1=I Feel Good
TTITLE2=Going Home
TTITLE3=We Are Cooking
TTITLE4=Looking Back Over My Day
TTITLE5=Dazie Mae
TTITLE6=Stand Back
TTITLE7=Call It The Night
TTITLE8=Roll And Tumble
TTITLE9=Bottle Of Vine
TTITLE10=Baby Don´t Do Me Wrong
EXTD=
EXTT0=
EXTT1=
EXTT2=
EXTT3=
EXTT4=
EXTT5=
EXTT6=
EXTT7=
EXTT8=
EXTT9=
EXTT10=
PLAYORDER=
